<?xml version="1.0" encoding="UTF-8" standalone="no"?>
<!-- Created with Inkscape (http://www.inkscape.org/) -->

<svg
   width="200mm"
   height="200mm"
   viewBox="0 0 160 160"
   version="1.1"
   id="svg5"
   xmlns="http://www.w3.org/2000/svg"
   xmlns:svg="http://www.w3.org/2000/svg">
  <defs
     id="defs2" />
  <g
     id="layer1">
    <rect
       style="fill:#eeeeee;fill-opacity:0.933333;fill-rule:evenodd;stroke-width:0.309457"
       id="rect4450"
       width="150"
       height="100"
       x="3.6391749"
       y="35.956474"
       rx="0"
       ry="2.879426" />
    <g
       id="g38562"
       transform="translate(3.6391748,-4.0435276)">
      <rect
         style="fill:#cbcbcb;fill-opacity:0.933333;fill-rule:evenodd;stroke-width:0.117839"
         id="rect37803"
         width="145"
         height="15"
         x="2.5"
         y="42.5"
         rx="0"
         ry="3" />
      <rect
         style="fill:#eeeeee;fill-opacity:0.933333;fill-rule:evenodd;stroke-width:0.0277939"
         id="rect38229"
         width="11"
         height="11"
         x="4.5"
         y="44.5"
         rx="0"
         ry="2" />
      <rect
         style="fill:#eeeeee;fill-opacity:0.933333;fill-rule:evenodd;stroke-width:0.0948109"
         id="rect38240"
         width="128"
         height="11"
         x="17.5"
         y="44.5"
         rx="0"
         ry="2" />
    </g>
    <rect
       style="fill:#cbcbcb;fill-opacity:0.933333;fill-rule:evenodd;stroke-width:0.267852"
       id="rect38553"
       width="145"
       height="77.5"
       x="6.1391749"
       y="55.956474"
       rx="0"
       ry="3" />
    <g
       id="g38670"
       transform="matrix(1.1860721,0,0,1.1418127,-93.217112,-72.018094)">
      <g
         aria-label="?"
         id="text32165"
         style="font-size:120.887px;line-height:1.25;-inkscape-font-specification:sans-serif;fill:#50a5f7;stroke-width:1.41664">
        <path
           d="m 172.42253,139.02399 v -4.35193 q 0,-5.92346 2.53863,-10.03362 2.53862,-4.23105 8.70386,-8.70387 5.43991,-3.86838 7.73677,-6.64878 2.41774,-2.90129 2.41774,-6.76967 0,-3.747501 -2.90129,-5.80258 -2.7804,-2.055079 -7.85766,-2.055079 -5.07725,0 -10.03362,1.571531 -4.95636,1.571531 -10.1545,4.231048 l -6.40702,-12.934912 q 5.92347,-3.263949 12.81403,-5.319028 6.89056,-2.055079 15.11087,-2.055079 12.57225,0 19.46281,6.04435 7.01144,6.04435 7.01144,15.352649 0,4.95637 -1.57153,8.58298 -1.57153,3.62661 -4.71459,6.76967 -3.14306,3.14306 -7.85765,6.5279 -3.62661,2.65951 -5.56081,4.47282 -1.8133,1.69241 -2.53862,3.50572 -0.60444,1.69242 -0.60444,4.11016 v 3.50572 z m -1.93419,20.18813 q 0,-5.5608 3.02217,-7.73677 3.02218,-2.29685 7.37411,-2.29685 4.23104,0 7.25322,2.29685 3.02217,2.17597 3.02217,7.73677 0,5.31903 -3.02217,7.73677 -3.02218,2.29685 -7.25322,2.29685 -4.35193,0 -7.37411,-2.29685 -3.02217,-2.41774 -3.02217,-7.73677 z"
           style="font-weight:bold;-inkscape-font-specification:'sans-serif Bold'"
           id="path38702" />
      </g>
      <g
         aria-label="?"
         id="text5400"
         style="font-size:120.887px;line-height:1.25;-inkscape-font-specification:sans-serif;stroke-width:1.41664">
        <path
           d="m 167.06151,135.44999 v -4.35194 q 0,-5.92346 2.53862,-10.03362 2.53863,-4.23104 8.70387,-8.70386 5.43991,-3.86839 7.73676,-6.64879 2.41774,-2.90129 2.41774,-6.769669 0,-3.747497 -2.90128,-5.802576 -2.7804,-2.055079 -7.85766,-2.055079 -5.07725,0 -10.03362,1.571531 -4.95637,1.571531 -10.15451,4.231045 l -6.40701,-12.934909 q 5.92346,-3.263949 12.81402,-5.319028 6.89056,-2.055079 15.11088,-2.055079 12.57225,0 19.46281,6.04435 7.01144,6.04435 7.01144,15.352649 0,4.956365 -1.57153,8.582975 -1.57153,3.62661 -4.71459,6.76967 -3.14306,3.14307 -7.85766,6.5279 -3.62661,2.65952 -5.5608,4.47282 -1.8133,1.69242 -2.53863,3.50572 -0.60443,1.69242 -0.60443,4.11016 v 3.50573 z m -1.9342,20.18812 q 0,-5.5608 3.02218,-7.73676 3.02217,-2.29686 7.37411,-2.29686 4.23104,0 7.25322,2.29686 3.02217,2.17596 3.02217,7.73676 0,5.31903 -3.02217,7.73677 -3.02218,2.29686 -7.25322,2.29686 -4.35194,0 -7.37411,-2.29686 -3.02218,-2.41774 -3.02218,-7.73677 z"
           style="font-weight:bold;-inkscape-font-specification:'sans-serif Bold';fill:#72b5f7"
           id="path38705" />
      </g>
    </g>
  </g>
</svg>
